<svg xmlns="http://www.w3.org/2000/svg" viewBox="0 0 1036 243.6"><defs><style>.cls-1{fill:#7eb628;}.cls-2{fill:#9c9ba1;}.cls-3{fill:#5c5c60;}</style></defs><title>Asset 1</title><g id="Layer_2" data-name="Layer 2"><g id="Capa_1" data-name="Capa 1"><path class="cls-1" d="M199.86,87.56A46.48,46.48,0,0,1,166.11,9h0c-18.56-3.87-32.39-.63-45.1,4.76-14.26,6-22.21,14.51-22.21,14.51a47.53,47.53,0,0,0,3.37,73.55s10.42,7.87,19,12.25,21.26,11.36,23.18,12.58c20.39,13.06,29.91,31,29.9,53.24,0,32.87-26.15,59.94-58,63.57l-.31,0c1.61.05,3.23.09,4.85.09A121.58,121.58,0,0,0,232.57,74.11a46.42,46.42,0,0,1-32.71,13.45"/><path class="cls-2" d="M42.54,156A46.48,46.48,0,0,1,76.3,234.59l0,0c18.55,3.87,32.39.63,45.1-4.76,14.26-6.06,22.21-14.5,22.21-14.5a47.54,47.54,0,0,0-3.37-73.56s-10.42-7.88-19-12.25S100,118.18,98.08,117C77,103.4,68.78,85.92,68.78,63.7c0-32.86,25.56-59.93,57.45-63.56l.31,0c-1.61-.07-3.23-.1-4.85-.1A121.6,121.6,0,0,0,9.83,169.5,46.47,46.47,0,0,1,42.54,156"/><path class="cls-2" d="M748.84,185.46a26,26,0,0,1-10.37,16.76c-5.71,4.23-12.62,6.34-20.79,6.34-7.46,0-13.38-1.88-17.69-5.67q-7.38-6.44-5.55-16.82,1.81-10.22,11.56-16.77a35.43,35.43,0,0,1,20.2-5.73q14,0,21.17,10.24l-7.15,3.29c-3.59-4.74-8.83-7.09-15.75-7.09a25.53,25.53,0,0,0-14.23,4c-4.79,3.08-7.59,7.11-8.47,12.07-.85,4.76.29,8.64,3.4,11.61s7.66,4.44,13.66,4.44q14,0,20.22-11H719.27l1.14-6.32H749Z"/><polygon class="cls-2" points="795.7 207.34 755.89 207.34 763.38 164.9 770.43 164.9 764.06 201.02 796.82 201.02 795.7 207.34"/><path class="cls-2" d="M856.33,186.07c-1.22,7-5.07,12.58-11.52,16.88a34.89,34.89,0,0,1-19.65,5.61q-11.24,0-17.76-5.67c-5-4.29-6.8-9.91-5.59-16.82s5.08-12.39,11.63-16.77a34.8,34.8,0,0,1,19.66-5.73q11.08,0,17.58,5.73,7.46,6.57,5.65,16.77m-7.31,0c.87-5-.55-9-4.2-12.07-3.17-2.67-7.45-4-12.83-4a25.63,25.63,0,0,0-15.26,4.55,17.54,17.54,0,0,0-7.58,11.51c-.87,4.8.29,8.67,3.39,11.64s7.7,4.41,13.77,4.41,11.09-1.47,15.22-4.44A17.7,17.7,0,0,0,849,186.07"/><path class="cls-2" d="M910,185.49q6.82,2.46,5.37,10.71c-1.31,7.44-7.3,11.14-18,11.14H863.52L871,164.89h34.3c4.29,0,7.49,1.08,9.56,3.17s2.84,4.93,2.22,8.45q-1,5.81-7.09,9M898.51,201c5.85,0,9.13-1.94,9.81-5.82.72-4.13-1.45-6.2-6.57-6.2h-28l-2.12,12Zm3.76-18.36a8.54,8.54,0,0,0,5.19-1.67,6.49,6.49,0,0,0,2.69-4.1,4.41,4.41,0,0,0-1-4.11,6,6,0,0,0-4.54-1.57H876.92l-2,11.45Z"/><path class="cls-2" d="M975.94,207.35h-7.68L965,197.84H936.45l-6.56,9.51h-7.7l29.94-42.46H961Zm-13.2-15.84L955.55,171,941,191.51Z"/><polygon class="cls-2" points="1026.66 207.34 986.86 207.34 994.34 164.9 1001.38 164.9 995 201.02 1027.77 201.02 1026.66 207.34"/><path class="cls-3" d="M397.26,94.52c-1.64,16.84-1.14,28.78,4.55,35.42,3.45,4,8.21,6.19,14.54,6.54H476.9L478.73,118l-54.68.07c-2.63-.31-6.63-1.84-6.91-9.12l.76-7.1,62.39-.12,2-16.28-62.59-.06,1.19-11.05c.48-3.82,3.55-5.13,10.12-5.13l52.55-.07,1.7-17h-58.5C408.59,53.11,399.93,67,397.26,94.52Z"/><path class="cls-3" d="M583.62,77.46c.86-15.83-7.21-25.27-24.38-25.27H500.92l-8.48,84.15,21.06-.06L517,102h27.17l11.33,34.59H580l-12.85-34.74,1.46-1.09C577.74,93.88,583.38,89.3,583.62,77.46Zm-19.17-.33c-.85,5.81-4.72,8.38-10.81,8.47h-34.3l1.2-16.38,34.41,0C562.39,69.25,565.1,72.89,564.45,77.13Z"/><path class="cls-3" d="M668.93,52.13l-34.6,59.56-25.1-59.56H587.4l32.12,77.69c2.1,5,6.29,7.39,12.81,7.39s9.7-2.54,13.77-7.74l44.65-77.34Z"/><polygon class="cls-3" points="690.28 136.48 711.26 136.48 719.63 52.13 699.2 52.13 690.28 136.48"/><path class="cls-3" d="M730.81,94.5c-1.64,16.84.41,28.76,6.11,35.41,3.46,4.06,8.24,6.22,14.6,6.57H812l1.47-18.71-54.84.11c-4.77-.46-7.48-4.21-8.09-8.67-.91-11.46,1.13-23.09,5.29-34.32,0,0,1.72-5.69,11-5.62h51.88l1.68-17-58.48-.05C743.7,53.1,733.51,67,730.81,94.5Z"/><path class="cls-3" d="M894.23,51.6l-.74,0-34.63-.07c-18.65.16-29.1,14.33-31.92,43.29-1.87,17.62.2,29.82,6.12,36.25,3.51,3.84,8.36,5.7,14.83,5.7h42.32c16.91-.34,25.93-14.89,27.83-44,1.38-16.8-.91-28.38-6.77-34.83C907.35,53.7,901.77,51.6,894.23,51.6Zm2.67,41.68c-.85,9.4-2.3,15.14-4.61,18-2.08,3.87-5.63,6.08-10.52,6.58l-25.3,0c-5-.16-8.07-3.67-9.88-8.11-.6-1.64-.79-5.08.4-15.58.9-8.22,2.13-13.3,3.86-16,2.69-5.49,7.22-8.5,13.52-9h19.15c5.05.44,8.69,2.23,11,5.36C897,77.53,897.76,83.5,896.9,93.28Z"/><path class="cls-3" d="M1030.64,57.77c-3.68-3.87-9.37-5.87-17.09-5.63l-78.09.23-8.85,84.11h18.57L952,69.32H976.3l-7.23,67.1,18.27,0,7-66.95h15.58a8,8,0,0,1,6.33,3c1.81,2.16,2.3,4.66,1.45,9.16l-6.2,54.88h18.55l5.87-58.6C1036.38,68.73,1034.61,61.94,1030.64,57.77Z"/><path class="cls-3" d="M312.83,57.86c-3.66,2.68-9.13,9.67-10.15,17.43-1.8,10.35,1.84,17.52,5.89,21.41,5.22,5,10.7,6.3,17.89,6.3l30.17-.18a7.55,7.55,0,0,1,7.54,7.54c0,.18,0,.33,0,.49v.07s0,.09,0,.12a7.53,7.53,0,0,1-7.48,6.88l-57.66-.1-2.49,18.58h52.33c9.92,0,13.88.52,22.39-5.14,4.72-3.13,9.87-10.45,10.71-17.93.93-8.88-.32-14.49-3.61-19a21.18,21.18,0,0,0-18-8.85H328a7.72,7.72,0,0,1-7.77-8,8.54,8.54,0,0,1,8.34-8.22l55.59,0,2.39-17H335.44C323.54,52.11,320.3,52.4,312.83,57.86Z"/></g></g></svg>